<svg width="18" height="18" viewBox="0 0 18 18" fill="none" xmlns="http://www.w3.org/2000/svg">
<path d="M17.8821 4.43211C17.7848 4.30658 17.6362 4.23484 17.4774 4.23484H4.62425C4.41418 3.05636 4.2579 1.94705 4.25534 1.92143C4.05551 0.807002 3.00512 0 1.75235 0H0.512383C0.230572 0 0 0.230572 0 0.512383C0 0.794193 0.230572 1.02477 0.512383 1.02477H1.75235C2.4953 1.02477 3.13578 1.48847 3.24594 2.10077C3.45602 3.27669 4.62425 10.0658 4.7421 10.8215C4.89069 11.7592 5.23911 12.4944 5.78224 13.0068C6.29974 13.4962 6.98121 13.7523 7.74722 13.7523H13.2425C14.0009 13.7523 14.6439 13.4936 15.1563 12.9838C15.6405 12.4996 15.9658 11.8002 16.2374 10.8728C16.3578 10.4603 17.8181 5.43894 17.9769 4.87532C18.0179 4.71904 17.9821 4.55508 17.8821 4.43211ZM7.74722 18C7.28864 18 6.92229 17.8693 6.65585 17.6131C6.3766 17.3441 6.23569 16.9675 6.23569 16.4885C6.23569 16.0094 6.3766 15.6328 6.65585 15.3638C6.92229 15.1076 7.2912 14.9769 7.74722 14.9769C8.20324 14.9769 8.57216 15.1076 8.8386 15.3638C9.11785 15.6328 9.25875 16.0094 9.25875 16.4885C9.25875 16.9675 9.11785 17.3441 8.8386 17.6131C8.57216 17.8693 8.20581 18 7.74722 18ZM12.743 18C12.2844 18 11.918 17.8693 11.6516 17.6131C11.3723 17.3441 11.2314 16.9675 11.2314 16.4885C11.2314 16.0094 11.3723 15.6328 11.6516 15.3638C11.918 15.1076 12.2869 14.9769 12.743 14.9769C13.199 14.9769 13.5679 15.1076 13.8343 15.3638C14.111 15.6328 14.2545 16.0094 14.2545 16.4885C14.2545 16.9675 14.1136 17.3441 13.8343 17.6131C13.5679 17.8693 13.2015 18 12.743 18Z" fill="white"/>
</svg>
